<mxfile host="app.diagrams.net" modified="2024-09-20T07:45:10.426Z" agent="Mozilla/5.0 (Windows NT 10.0; Win64; x64; rv:131.0) Gecko/20100101 Firefox/131.0" etag="AK_3pnm8z0sAF8T7BFFa" version="21.7.0" type="github">
  <diagram id="zK-IoOro-HX1ryCZAEwV" name="Seite-1">
    <mxGraphModel dx="1434" dy="874" grid="1" gridSize="5" guides="1" tooltips="1" connect="1" arrows="1" fold="1" page="1" pageScale="1" pageWidth="1169" pageHeight="827" math="0" shadow="0">
      <root>
        <mxCell id="0" />
        <mxCell id="1" parent="0" />
        <mxCell id="fJF8-RRNtBRzqFDMRA4T-44" style="edgeStyle=orthogonalEdgeStyle;rounded=1;orthogonalLoop=1;jettySize=auto;html=1;strokeWidth=3;exitX=1;exitY=0.75;exitDx=0;exitDy=0;entryX=0;entryY=0.75;entryDx=0;entryDy=0;" parent="1" source="fJF8-RRNtBRzqFDMRA4T-10" target="fJF8-RRNtBRzqFDMRA4T-20" edge="1">
          <mxGeometry relative="1" as="geometry">
            <mxPoint x="555" y="795" as="sourcePoint" />
          </mxGeometry>
        </mxCell>
        <mxCell id="fJF8-RRNtBRzqFDMRA4T-46" style="edgeStyle=orthogonalEdgeStyle;rounded=1;orthogonalLoop=1;jettySize=auto;html=1;exitX=0.5;exitY=1;exitDx=0;exitDy=0;entryX=0;entryY=0.25;entryDx=0;entryDy=0;strokeWidth=3;" parent="1" source="fJF8-RRNtBRzqFDMRA4T-12" target="fJF8-RRNtBRzqFDMRA4T-10" edge="1">
          <mxGeometry relative="1" as="geometry" />
        </mxCell>
        <mxCell id="fJF8-RRNtBRzqFDMRA4T-45" value="" style="group" parent="1" vertex="1" connectable="0">
          <mxGeometry x="874" y="395" width="130" height="130" as="geometry" />
        </mxCell>
        <mxCell id="fJF8-RRNtBRzqFDMRA4T-20" value="" style="rounded=1;whiteSpace=wrap;html=1;shadow=1;" parent="fJF8-RRNtBRzqFDMRA4T-45" vertex="1">
          <mxGeometry y="-10" width="130" height="130" as="geometry" />
        </mxCell>
        <mxCell id="fJF8-RRNtBRzqFDMRA4T-11" value="observablehq.com" style="shape=image;verticalLabelPosition=bottom;labelBackgroundColor=default;verticalAlign=top;aspect=fixed;imageAspect=0;image=data:image/png,iVBORw0KGgoAAAANSUhEUgAAAOAAAADgCAMAAAAt85rTAAAAdVBMVEUAAAD////4+Pjp6end3d3z8/NaWlpdXV26urpFRUXS0tJzc3MVFRWKioofHx/v7+8vLy83NzeBgYGnp6e5ubnk5ORSUlJNTU2amppiYmLMzMxra2uIiIgoKCgLCwudnZ2Tk5PFxcU9PT0cHBwzMzN7e3usrKxISuJFAAAMsUlEQVR4nNVdCYKqOhCM7KuI4L4BM3r/I355My4oJJ1KgvPrAJgS0umlusMmJmG5mW07wXof+2F+mCbHI2PHYzI95KEf79eBY9uZaxldAjP36CwqU79JGBdJ46dllJlbhSGCVlSkmxmf2wOzXVpEhl6kCYLR3AvJ5O4kQ28eGViMXoJW5swPstSecZg7md5XqZGgFZX7XIXdD/J9qfNz1UcwOmtg98vxrO9j1UWwpJsUCmabUtPCdBB0nblOcjfMHVfD4tQJOhffBL0W/sX5OEEnDU3RaxGmqhTVCFqp1p3Xh1mqZlJVCLrl1DS9FtNSZS/iBBeBNwa9Fl6wGJ/gaTkWvRbL08gEt6O9vRu87YgE7Xhsei1ieyyC0eoT/BhbIQ6cPEG7GsV29mFayb9EaYKVNpcaQV4ZJrgw6rdQEEqeGHIEF8bcTjp8OYZSBIsPWZcuVoUhgu5HDoc+xBK+G53g9qPWpYucfuqTCQaCBOe4SALdBIOPHX79mFIZEglWf+r9tUiIJyKJoL37NJ0+7EhuDYng6KEDDZ4mgtbp00yGcCJkM8QE/+b3+QPCVyok6DQ6VvL1HS79eF+disulKNbpOfZXzbe6ZW6ESTcRQVudX7OrToHz/jVlUXBKd4ruQyN6hwKClvL3uasjnmOVRbVaWnwn2IcCgmtFentC+t1ylP5FQTqKS9BWOh/yJd1jdGI8g+xxv1IuQZXwYXWSS7pHFRxrxijBCqeXnORTtXbwDf4az2vjEFSIH2IsE70AtwQvthgmiMcPB6mQu4MSy/lwYotBglv0/SU7lfpzhu37ZNCeDRF00QO4qdXqslbxhfxsPvSrQwRRAzr4Q3RgO3HIlA4QLEB+oRYBCPT1DGz8foILMD/oq9fU//08Uppb9VvuXoJofhcoHQwwRL7S/oxwL0EwP3/WRO8KG1lCSCVYfZzfBLNyfR5ND0EbOyFyPfvvhgxYRd6zRXoIVhC/ISsGowQ8jZ5X+E4wwlw0WCUwiL38IqbvTtQbQRs7IaQLkwRs5JexevtI3whiLoxvQpDsAAt5c2heCW4hfkyX+LELxJ969bpfCWIR2U6H8PEdLpCseU13vxDEktgzE2ryFhEgAH+xdl2CkBPI2NwQP8iSLrseW5dgAPFjulzQd5RAcNiN7jsEXWwHmrEwPwAOLa9jEDoES4hfbLL5qAYW1PnDnwlakA/zBcoAiQBSidPnf/yZYIrwk9J0AEC+qrSfoINlz9dG+U0yYBfOngKbJ4LYCxTWr1SB5C+fXuGDoIPF8XrD3B5kgDsTPl7hg+AF4sf0hrl9QLyryztBF0s0Jcb5TSLANvh3y3cniMQmzEwc+ArE/bh/WHeCWCH5gDc00IFsnrt7fCcI8dOeiOkHsrJXgpiXZixO6gKx7zd/7UYQyH8w417MDUhkv+kSRCwVG8fETDADePu4fghaZ4gfWbSpCMRdY2friWCEJbPDcb5Q7KzPoyeCmInh6zd0AnoB5YOgBaQ+WoxzSEzALbS37gSRQkeLMU75H0DfaHYnCLppBieZvALStDh3gqDezx+PoIWc9fM7QXC+hv6C0jAQR+RwJ4jxY/J+mmU7URQ5wHwcyAzeCEYgQblkxeISL8Mmn81mebPyYsnecSgcj34JgltwRX8RbtRTlfuuenTOQ8iQFc5/CYIaP7qnXQ7toJie8EBW6P0QhCwUo3vaNiddF5LT/og2sNVdMTiSoJYkaq5uP/GJiXGk7tVGFAzWpTUkI+qKN/iatBOhymXxjyCW8L2FI3xsKW0Xc9KTkDWmLcEMC+Y7BYAhOLTSCeVRC2SNm+xKEN2CBBtjUXOtlfgd2sgar5uQobHgkRAr0c8f8VQcG/InywmzwC34JUxXWJXE44R/F5S2uP5xDEzZs5nIvLvro8zzREc+1uTuuywD28u+RSvaSvFjO8HjsC+tyZgNtg+I6oKW5D8+rQUMoeM6sRlkndiAvPYJ0uoBT5AAwYyhzdB0xVJAUN7B3fMtKabhcRio/RG1QCMxJv+jr+X29C8ChrZAbrirgWLMC/eJEdSbtmZgSlRk9ZBTi//VO9BBuGdoDw8/q72F/A7uIxExwnWZDO275CsMsRCM7ztAmRWfoUOa+L42lubh/2nQSR8ytI2OSxDUnfL3NUQwZ+hQZa6Ca4u1JvCtDETwwNBGVi5B8HDlN+dBBKcM7WTl5u3RNA/3qK+QRyYM8g+YIIADB7TkXHe0Qh55NEMQdI/4/V0V8kiU3v/mDeLg7kFQudhwqx0V9lD0HXKtKJjI4lvRCnkkvge5Bz2ilWeic7BCHnmEjwlusjbCEj38EAw6BxP4oN9zF4P5onz/FjzoUVfNRDTBL+dAf9oBdrb58WANfRjcRyK9dq2zjYZLfM8fyrZOuY+0ocg1hANeQdIJ0V7xczJY24MPpywEaUMgq/bFz6phVbAYTjqt+ASBvKighoadrXs4bSgarCLtzCwFmW0sxlzDiV9RbcKVfIVHkaYB828DOHX/LdIgBHJOoFBci31qDlx8EVaDpOqfYl2YhTlHNlw+O/KNegsZ+yX6uyYupJVIbLgAShFT0t0ZsaIhg47BJoNL2BSVxZZ6dBHuysBECL4LixBInZE1rSJ0IugWMVuRWrCMhK0oSkFSfyqpCxgSArUyElgIxGrKusRBDrF9Bjqv/wmBsLIUE/nGdwhs6Yz4mApZ4i5TEOPRNHTt/Vq8kDOlXqYInRKpipySLamS5qwcOop8uq4diqALJUHsUUKUHp2bQ9d1O357lUznDLLCX0EsKmmW6+zJ6iJd3oanNHEqebUg5DL/SprhWf211BKvWGyD4HK5BLX83ZBQLPErSkfbCgwOAnoH1MF5aytAG0O+RiQIaUhujSFoa8+I3WcOlN2cTNSas4DmJRRQe92jOQvdhIZHyTwBCucf7XVo2oJ0J4kOYDnRR4Mk2uLajNXjCjlbTy2uaJNyQnSUVYGVJZ6alOGYcKRJCBnYUvAgCA4KYL7pgU4/gJLanUEB4KgHzoh5rYB8yc6oBziiULzHmQYLWVl3WAc6bsXk3MYHoGzFy7iVP21moArf68CcP+yPLmA/tEMQdddq4wShU/59aBXqrgnaC9SBNXC+jx1DU/h8AZ0G1Eh1qGdwHCqgI1SZlICVzXpG/6HDG9vkqklA/3vv8EY4AVwbJQiJBXvHb6IDVF+GBmsGJK0dGKAKv0KTmQuoAWNgBC44xFgsmVEApHkbHGIM+2vGRgNhke7gGGp0kHjnm9cKyInhDBJHO1ZIsxoAYHV5zih4tKnq+dzRCSgM5w7zRxsezERNWOGSex3DiJUmMWroGjvBhRrolShS1VAaMIWv8EoU+F4+X7dLijn/wktt0GuJtFtSzIISriVCL5bSbGigOWqki6UUurw0OjRYWwLtajD0cjem0ZSCV6gTL3ebVCjBb00MLTBLS7yeD75gkVFnpAnggoEp+YJF+IrMK+bK0a8VgBJdiSsy4UtOmdQ8xl5kZ7CjUeaSU1y/dsVBbbo4vD2krqlVu6m9gj9TK4L5SV40jF8V3WJZY35bjf+t0ldF45d9tzhugBnjToX/pPxl3yrXtf+DV8vR2/qotJph17VfGaq8wytWVDHvde8RxpBykHDsGq++V6kRZGxXkjg6QQUNpLqD5+ZzC5ioXP2BJq4CrsGxomKOH7o/4HbbcgnaaALjGV+Ndy56T3+3rjbhDB+n8QuPm0wQlKDR9skeHFab/fpUlOXlckrPO7Rl6g2CIE1A0FL/Sg1jJ9jlIhGBre2fNgPh5XlClQQYe46ERujai2Ug9h/+SnfiZCVB52JptDR6QQmvSUIeHaeFAZAExySCtkrwZAyEtlEqwavXpuiX6kdCTMNStWaKsYV2kG8lI4vpVGMLveDFDyDByVYlxteMnK40lpBDYrPKTUDm2kMpvWehGthowUoqHSInaFXICGtDf35XE8HJAs/qa0IoKd+UliRXH7U1uXQRUl5zbVcfOxKnlbwSABGVRx+yNStE9Qep5j/jm9J8Ty0Er6f+6AGGB3YRwX0PJ1D1hWEJ1//xxo5FMNpb9AJc2q/SueKWo9jTqeRVhfoItjfNKFRMaJgpNrip9h45qVHfJkxVhZrqzVXOxZiD6ktO9DBD8LoXHaXi1xDm8iM9eqCrPa7caN2Nsw35akkB9PX/RWdtbnh+1teKobHB0YrKvQaO+Z5WNiVCbwenlTlzdPLHPxzmTqa379lEi2o090LpHTkLvbmJHiFDPbhWVKR0szPbpIXOz/IZBpuMs6hM/UaQTk0aPy0jgy2IZruoLTezbSdY72M/zA/T5Hhk7HhMpoc89OP9OnBsO3PNzhr4D+Srv4SYCOpEAAAAAElFTkSuQmCC;" parent="fJF8-RRNtBRzqFDMRA4T-45" vertex="1">
          <mxGeometry x="27.71" y="17.710000000000008" width="74.59" height="74.59" as="geometry" />
        </mxCell>
        <mxCell id="fJF8-RRNtBRzqFDMRA4T-52" value="" style="group" parent="1" vertex="1" connectable="0">
          <mxGeometry x="860" y="40" width="144" height="140" as="geometry" />
        </mxCell>
        <mxCell id="fJF8-RRNtBRzqFDMRA4T-49" value="" style="rounded=1;whiteSpace=wrap;html=1;shadow=1;" parent="fJF8-RRNtBRzqFDMRA4T-52" vertex="1">
          <mxGeometry width="144" height="140" as="geometry" />
        </mxCell>
        <mxCell id="fJF8-RRNtBRzqFDMRA4T-48" value="zhweb" style="shape=image;verticalLabelPosition=bottom;labelBackgroundColor=default;verticalAlign=top;aspect=fixed;imageAspect=0;image=https://encrypted-tbn0.gstatic.com/images?q=tbn:ANd9GcQOZtd-90JAvhmsLHi6kdD7_Zrdiq_edZsF2xxE8sBsoo1amhytiBdIxlejt3VQ7OJH7vI&amp;usqp=CAU;" parent="fJF8-RRNtBRzqFDMRA4T-52" vertex="1">
          <mxGeometry x="23.019999999999982" y="32.79000000000008" width="97.95" height="74.41" as="geometry" />
        </mxCell>
        <mxCell id="fJF8-RRNtBRzqFDMRA4T-54" style="edgeStyle=orthogonalEdgeStyle;rounded=1;orthogonalLoop=1;jettySize=auto;html=1;exitX=0.25;exitY=0;exitDx=0;exitDy=0;entryX=0.5;entryY=1;entryDx=0;entryDy=0;strokeWidth=3;" parent="1" source="fJF8-RRNtBRzqFDMRA4T-20" target="fJF8-RRNtBRzqFDMRA4T-49" edge="1">
          <mxGeometry relative="1" as="geometry" />
        </mxCell>
        <mxCell id="fJF8-RRNtBRzqFDMRA4T-55" style="edgeStyle=orthogonalEdgeStyle;rounded=1;orthogonalLoop=1;jettySize=auto;html=1;exitX=1;exitY=0.5;exitDx=0;exitDy=0;entryX=0;entryY=0.5;entryDx=0;entryDy=0;strokeWidth=3;" parent="1" source="fJF8-RRNtBRzqFDMRA4T-12" target="fJF8-RRNtBRzqFDMRA4T-51" edge="1">
          <mxGeometry relative="1" as="geometry">
            <mxPoint x="673" y="-300" as="sourcePoint" />
          </mxGeometry>
        </mxCell>
        <mxCell id="fJF8-RRNtBRzqFDMRA4T-56" value="" style="group" parent="1" vertex="1" connectable="0">
          <mxGeometry x="100" y="375" width="144" height="140" as="geometry" />
        </mxCell>
        <mxCell id="fJF8-RRNtBRzqFDMRA4T-58" value="" style="group" parent="fJF8-RRNtBRzqFDMRA4T-56" vertex="1" connectable="0">
          <mxGeometry width="144" height="140" as="geometry" />
        </mxCell>
        <mxCell id="fJF8-RRNtBRzqFDMRA4T-13" value="" style="rounded=1;whiteSpace=wrap;html=1;shadow=1;" parent="fJF8-RRNtBRzqFDMRA4T-58" vertex="1">
          <mxGeometry width="144" height="140" as="geometry" />
        </mxCell>
        <mxCell id="fJF8-RRNtBRzqFDMRA4T-4" value="R-Studio auf &#xa;unseren Desktops" style="shape=image;verticalLabelPosition=bottom;labelBackgroundColor=default;verticalAlign=top;aspect=fixed;imageAspect=0;image=data:image/png,iVBORw0KGgoAAAANSUhEUgAAAOEAAADhCAMAAAAJbSJIAAAAYFBMVEV1qtv///9xqNptptlppNmXveNwp9r2+fyZv+PN3vCCst77/f56rdzY5vSoyOd4rNyvzOnj7ffT4/OPueG/1u3p8fmjxebB1+7w9vuJtuCty+mewuXo8PnO4PHf6va30evT7xONAAAL1UlEQVR4nOWdaZeqOBCGQxJBFkFFFO1W/v+/vMGNBFmyVAncfr/MOTPTNE+nSCqVqgrx0FUWm/BQpatzFCVJRrIkiaLzOq0O4aYo8X89QXx2UFyrnyijjDHfp4RS8hIV8n3x7ymJ8nRfxohvgUVY7rc54cynEleXalTGk3y7D5DeBIOwDI+RgCPDbAonEZjRMcQwWmjCcn9JOBsZuL7hZDy7gI8lKGEQrnxhmBZ0b0rx86sQFBKOMA5XlLnQvSkZXYVwcw8U4S6FwXtDpjugNwMhjE8J98HwHvJ5dAIZSADCYgs5fI3EUy/FDAh3awY9fI18tnY2VkfCW84xhq8R5fltQkJ0viej0zg6EP5+g+/J+DsBYZCiTC89jCy19gJsCQ8Ub37pkk8PXyW8JeyrfKQexsRuyrEhjNMvfYAtRp7auAAWhPvsuwbayE/2XyCMfyYZwIco/0EnvE02gA/5menXaEi4nXAAH6J8i0hYnr8+hXaInY2CHSaEG6vgBLwo2eAQVpNb6EuUVwiEcT4HC32J5dpLoy5hGU07h7blR7ofoybhziD4+R3RRHP/r0d4/eI+QltMb77RIjzxqWm6RHkIRXiYJaAQP8EQVnMFFIgaq8Y44Xa+gAJx3IUbJZw1oA7iGOGMTfShUUMdIZztJNNobLoZJpznMtHSCOIg4X4JgAJxMLYxRLibk689JDYUFB8gLLMZumqdotmAGz5AGC0FUCBG/ZupfsJ8XtulYfm5OWG1lI/wIda7LPYRbpYxjTbifXupHsJyJkEnfVHaM9v0EC5olnmJRiaE22V9hA+xbie8k/C2tI/wId4Z8O8ijBez1KuipGtV7CL8WdJKKMvvOpnqIFyIv92lLh/8kzBOlmmjtWjyaaefhOlSbbSWn44T7pZro7X4x0bqgzCa+h0d9bHutwlP1mt9nbU+9N8fyfm8zttnvP4HjmPI2jGNFmFg+2tptKtW5OPF6ROM0fPP9nC6bnZFUZTF721/uqwIc0uZ7n4RGgwSWk8zD6+w3Jwu64jyl1hy/kkP+11PQUWwqSIODdmebFTCwtpGVb83KItdUQY6p5hFdQY+W2bqsZtKuLL+XX2evY52P6CHd3TdT+iwUrgQioFcQ46jumIohLn9r3Ej9LwNYCYSVYI2MqHLYu9KWGeTgSEqgygT2n+FAISQRwh01U3o5K8BEAJuauRBlAh/3D72VVqFt8FKwjgof3e72+22K7pzmkMoRCptFBvC0jE283Be/Cy/kza/odztT1W6PidP76Z23IQvEx3Dz3QRMENlzQs0hFuYyaz20xiXZrMVf5aQtv4/ylh0aI/lEWhG9Zuo1JswBl10pU993f9gyvx2qBrIHaf0/bm8Ce03FV2/QI9QqJ2ffgV6jWaL8SYEjQHrExLaOsIFeo9mbn8R/oJu7Q0IxdSuVFJADSL/bRHCRmeMCAm/yohAgTD/ohLGsBtuM0Lqy4cqFdCc/pprCKxtvB5vRKjud6BCYeyqEGq8hokMCVuuMtBcs5YJA5BnSk83JFQiDy4bAEWBRAhspMaEhEmEQM4VYXuJENhIzQm5VEIZAv25n2Z6JwT12O4PNx5DadnfgBlU/CaEe+ZTxoTv1csDPFd4JIITSMt/y5hQXi9KKMLHBuNOCH6eZkxIpO1WALYPzl6EYH+05tnGYygFQeBeh5dPQqjJq5E54bn5gQKMkIVPQscATYfMCSUrhTvBvIdrCMZnaEF4bH5gD2ZSNHkQwn+GFuuhtEc8wH009YdI4F02YuPTSLGMI5xJ1Y6bILzApyY4+aWA8ZR6RRSEZ7AHvmW8t5BS0sCWw1rnmjBAyPEyJZQCuKBrF81iQQi3/EhPNiNkKNvDWrwQhHCTcyPDOI2cyVSCzgpiqiHeASEHyoiQKgfvsLsA/yAI4T0aM0KqVLsCb1WFV0NQEp5NYt6ZcuoOvJETHj2BCm2pD9YlpDxXjp+gpz0q+EqUZnK6Z0/thjPgWXW0JPZJQkPP1SCkPo/axdgp+MuwgoDHaGqNEvqMRduPREnQE76H2IbAb3+JSvg4A65FX+fc7Jx2HHGjpF+zkGAshwrh5nQ6HKqq2l6O6aVuAH3rKW65YuTu+gcCdNSjSklo0RROTbVfkRR7LtVTsMYp06EpwXBpzAk3WC386A9xyNYbeK4ZIWxqovomOTlPTljAppe23uRMUOrwDAg3a9TeNzQiKNUHuoSbS4LdXisiCcZjdQlX+O3DEpJhPFZZ8UNVsq8d47efQuH79NpkKSXJ36iTQx/Dtuf9OPN6Cb3WMcP/Dj/2FkriBXq9aoI/l37unhQ7RS78r1eL7+/x1TpI3HpHQYju03TsgFU7Ra1ZFT4Nul/atcdX6spRa+OFX4q+t+gipEqpzgWxv4HYW6DvD7vjNEoJHWLdqtgfou/xu2NtynyKaKdij48ep+kmrM+9GuH14fAP+LG2nnipL+UmINopCyeKl5KWncIm0ktimwlj3op/itW0iRUkmOzcojWf4qz7NCAehuurdzKj2CmKLdWGMuX5oeqfAiYKSb8imvYMWLVTDA/5fgaMseTrnpAqdoqQfSYW/IlzMVT/FONwbT91Po1qp/D7HFYKQow4gn6mgmqn4NnY95yoafPaVP8UvOftPa8NPlPfKNtE9U9BU77euYkT55cqdhrA/rWf+aUT5wir/ilYSf5dzxzhqfO81fl0DTiKrzzvyXP1VTsFPMp45+pPXW+h+qeARxnveovJa2ZUO4U7ynjXzMBvoIyrZNUETKDXaeqepq9do1QeRKijDKl2bQb1h8q6D9T/Q6o/jEEeKMm8Ok+1U6D1q6khnb4OuDWfgtipXAcMsUekykl2qz+NrJ6fV+30Iv+Q5Z9fqeV2r8enyVVOR5BsrpWpcM17nqDaqfwTdpEkqtTju5upfiesvqMg1T+VZbcxVnsquJupPmFvaVpH/1gXwldP4VegxNUbBCDsbY1vRfg2iReha4keBGFXn2NrwnZ/Gud4FARhaz51I/zoMeQa+gYh7LFTG8LPPlGuwUoYQjV+6kLY0evLsaTKfbW4q9NOLQi7+rU5bjBoFAdaiocLmfn+8yf6fIQBdfXcc+2b2LRHHtHIgLDPn7B4m86+iSiHUBOpu/fl0vvNy+rpXwodcJ5OfT1o/59B7O0jjHC6NYn6e0H/L4M40M/7//gSW6UQUH31Z6TBvvrLvoLloeG7Eezvt5iNxu63wMiH+K7YwRsmXOKdcrLuR4bDhAu9c+0ljbuClj3Z6Nz39Afu7Pr/7137A3fnfaPuEUX69x8udT7Vv8PyD9xDush13+wu2T9wH/D/f6fzH7iX+w/cre7FC5ptaNR/C1M/oVcu5uJjmvXMMiOEy4nasN8BiiHCpUyovdPoOCFwTjKSeLuvnQkhfHkAvHj78lgzQqQeY4DivQuhJqG3nTci73a3TQjnjTgOqEE4Z0MdNVE9Qu8wV0Tejv7aEs51Rh1ZJkwIvT1qTzU7qR2WXQm93eyCUzTr6IDqQOiV0bw2U3404GxbEXpxPic/nPXvB60J64VxLpZKdVYJC0JvP5PwFKV6c4w5ofgY52CpTPsTNCes6yCmHkbKL+Ov6UDo3QBvebeRn3WG7gEJ61vepxtGyn+GLv6GIRQTTjLV1/jRhh+J0Isv0/ip/GI8gJaEwomLvu6oUhZ9JCEgEortBlYD7h75ZCQcA07oBekXh5Gy1MZA3Qg97zf/0qxKeT4U8sUjFJ/jNxgFn90HCEEoHADsftWUr0yXeFhCMY5rhjfn+GztNH4ghMIfv1CUSUc89aK5j0cmFC7AKeHQA+nz5GQ9f8oCIRTapZADKZ6VOpvnU1CEdfn1CgZSPGUVggzfXXCEQkEN6btQUr/GC8Z/lb5ACYWCfZpxZhXuoJTxLN2D4nnwhLWK00pQ+gYhVirWBZ6tTwBT54cwCGuV122eMGGyY32waN1uIsm3V6Pgi4GwCGvFxbVaJ/eOGfWNXTXNi0p8cPf7u2gWHQ+bEm5e+RQm4UNxWWzCU7U9rvNzFCUkiaJzvj5uq1O4KbAGTtI/Xy+O7+AJvtgAAAAASUVORK5CYII=;" parent="fJF8-RRNtBRzqFDMRA4T-58" vertex="1">
          <mxGeometry x="34.5" y="25" width="75" height="75" as="geometry" />
        </mxCell>
        <mxCell id="fJF8-RRNtBRzqFDMRA4T-57" value="" style="group" parent="1" vertex="1" connectable="0">
          <mxGeometry x="100" y="40" width="144" height="260" as="geometry" />
        </mxCell>
        <mxCell id="x03pLvb_-MmkTBM4rhX1-1" value="" style="group" vertex="1" connectable="0" parent="fJF8-RRNtBRzqFDMRA4T-57">
          <mxGeometry width="144" height="260" as="geometry" />
        </mxCell>
        <mxCell id="fJF8-RRNtBRzqFDMRA4T-12" value="" style="rounded=1;whiteSpace=wrap;html=1;shadow=1;" parent="x03pLvb_-MmkTBM4rhX1-1" vertex="1">
          <mxGeometry width="144" height="260" as="geometry" />
        </mxCell>
        <mxCell id="fJF8-RRNtBRzqFDMRA4T-2" value="&lt;div&gt;Datenbank der Bista&lt;/div&gt;" style="aspect=fixed;html=1;points=[];align=center;image;fontSize=12;image=img/lib/azure2/databases/SQL_Database.svg;" parent="x03pLvb_-MmkTBM4rhX1-1" vertex="1">
          <mxGeometry x="48" y="35.5" width="48" height="64" as="geometry" />
        </mxCell>
        <mxCell id="fJF8-RRNtBRzqFDMRA4T-23" value="Stored Procedure" style="shape=image;verticalLabelPosition=bottom;labelBackgroundColor=default;verticalAlign=top;aspect=fixed;imageAspect=0;image=data:image/png,iVBORw0KGgoAAAANSUhEUgAAAMgAAADICAMAAACahl6sAAAAeFBMVEX///8AAADLy8vPz88vLy8zMzP8/Pz5+fljY2NnZ2fp6embm5sHBwfX19f39/ddXV0bGxsRERGDg4Pt7e2RkZEVFRXd3d1RUVGnp6e9vb1LS0s1NTUYGBgiIiJvb29GRkY9PT12dna1tbWwsLCIiIifn58oKChWVlaFMk1VAAAMiElEQVR4nO1da3uqMAw+iIIX8D4nOhWmc///H56pyNokbdOLsj3P3m/nzELfkjRpkrb//v3hD394DhbDtnsQAuPTLopm+1/PJf+iccFslLTdFS+Max5f2Hba7owPTpGAwaLt7rijKxKJXj7a7o8zskhGGbfdI0dEENl+3HafnICIRNF03XanXEAQiaJD3na37EESibLq18kXTSSKdse2e2YJFZEo2qza7psV1ESibJ623TsLaIh8ydd7291TY7zK444ALZEoelXK16qDEOerZ8wRSWfZ384MHcfydaKc4uQ0Vfx+tu0v4wf60eP1pzWHGgc8yuODvsnsc/2YTxMPXFlcMEDPG5gbzQbhnbbCMH5GQD1Z8Zodwq5v8o0njShagkeezE1uCGiK0gr66Q7Yg4cyJKtGMFOUd80vM6MCT91btO0G8T8/AnyOL0C3a23TOAuwKKiC0IimUDxSlRGhAT+oLZJJGB5ZgR5d2H3piZeBTF7D8JhR/tb7i9UzPn2YBPoen3QEcnHabHsIZ5XdnbjzqKjnTSfLYrWQRF5P44zFSo9FZ7mh5M5ZTz7ws94qymnQ0ZgtnURi/LHFz3Kcu3I0KrsRbZo0PCbuce2ihA/LnOxJCu1gdlJZWCWNrq1UyVjD6aDnYuMr8JCt2udR0HCUKgFD6KrO7Z8BBWugGQyah4dUNUjAcGb2HiTwd7VDQdHoBvK/l/JjX23bFzaf9BFS1QD4+7bjIwsn9MEBEI9+yByc7PBv7BrHUuPSMLzA/+uFXdWlskWxm4KlUZiZxrf/IKmqsZLmHYN0yBhL/s7I9HNxhus/IPMmqcnMxpZIq56t+feNMxNYqmqkO7E/NpHxT7EhJ+RZnC+/fHtUdlry+iy84ESUrC6vTWf90XlYcDB9Ezr0wm8nBXNhHKcVVGKP+POWaE2zH5E2l8yBcfJpIE6nhwd2zwKiqcLhVxVEC+Tgbz4C4qK7ZLcSdd1vRREMorRPuY3GokD+kMolyYnlzo5ioDzze/2+32Dv9W1XLoObC212Pm8H8V2faOFCfBB3dSXOdWePl79HAB7fJBGfwzUkoj3sub8bZw6sHFcA8TncPFYoIig7ZL1OFdAmEZRXYfjRSrRJBAWp2QaAQItEUsiDbwAItEiEyNt6WNdnEVlPJjDETFR2gPVjsu5XXJvwHCLpNSG0kT1+Iksor1IXl5jTjNmrpxBJ68TWWRpeECO8QFpJ5NflcfTC69YziKRNgm4m2u4KExGdlPe7j81j8gQiqZBozISFMZG363//VQjxsJg8nkgqJ0z7TdgJ5WmE5WYqxfQ4TB5OJIWJ37KeY8dvEcJbXbg0BCQVTPIJ8QwRWfekK4WyIYJ4fHn+l16tqh36w+Vv8wvNGBULkExGnEz8TjN/2xChEvHZOv4k/rv+46RDdfAFu+ZoFUDjrP4mFkSsKkq02KGQ7pnZUh0dsiASqKLgAhiZzc1NblAHrEQiBs87IBG46+TIbaj2qUVvzxCfCydaaE5lP1oTVhAmPVPAwL9GsMYnfLKpmriBJhk3b35kTAcvuCppQA/NPQm3oEtT2DFuFqnmgOnKp4i2wRsxYITTSaGnW63VljfjBH4Lw4s4yKhEV8KrpdTnyJLjpDxUvPgRc+R0oPfJsbSkTzZ1Q9/8Oj1U8S7G5G7MONsgJfzcGt39Ol6k6SJe79WCclBJ+dCsf2HzaUPSQYxmsmzmFd2vszonZpRaraY7ICbcwGyPOrigqpZnGk006nvwbDiuGjyTS4wYmx1tZNswJYbU9BvQBPOqcK7H0BV40QuHVt+Dajr9PnW5MSqJ1ldcavU9fOZ8CHTkVTPMCfgmhoIEjb53wxcozOU3aBZtXxgDPTGYZrW+h697GcvTb2aIcsjFYKa0uVLfPSqzIdJVZ72sJiXIHxhzhWAW/qyWx85QKScKfQ+k6e+DTVdRpD+jDdzwNBjVIrcgwyPT7etgvsaNFfoeRtN1+3HoDxJfutNdGJu/YMkn9T2MpmvtFGmph7dlUr0u0AUW3vASi9L3MBUZug9CTqfjurylrP+tW1fiCjli3PiaHr8Xam3SOe6kZN3jePe8rm4kiDgVivdxNT1ZXiXhoJpHdUS+LXVnVNSCXMHR1oVICCJI35ma3uxIyhSFkDoisfiQ7VW7R/e/NV8r1jyAihyCcmyupn83U3xCHZH7/Hmba8pU2Ba2ad6/ULcniSSyUjE1XSwYRuEmI5F7DLe8PyC/y0X3ez4iUtdaIrK+czVdirCT5C2IRIO7/yKGfKyJiPrO1XQ5nH+mCp/5ovUNKeRjK1qSvjM1HXiA0cmSyN0eJmA3jrTusFX2LxzvAq+MVQAAlzzKiA+pI9JMdHI0VY71WU6/VxQ352DAPHdghRw6Qt95BlGMpoKHWBrEG9J1tV+y9yYRJwlgfdf1Q0gNfW/H3YJh1LkoYY5PotIrZySUWqdRGLO7JZwC8dQGQ4OcKDAmY/l4muC68bffoSWj7niBMBXTFflsYuIu9q9bRQJjJojR1U/JYHoQxioaZLtDGMHCu1pvUJjSZNg5jqr+ATASxzRZ7+dogQLniuva8KPIw+0nUEaj9c4NDD4Y0hFAw7bh90OoZ3eDu1nJv9ZvqV2ADxj+kLeFpvJD7xbAqj+dVzeGdSjhz63STUUGRw2GbNSlyij4G35fh87/MbnOqO1EMc4LqIYP2DGkzjtdoQ1QYu3qkRpfoCmbcuX8MEJ9kaHTdzLRM0fe3ZAKGpr2z9piYTzcQ63vQ9o0zuRa2M6AtlL8LVMsmA8lUuq7Jhnaq5pkqNpP5O9iY4CT01YlunzT08QxNs5Iepw30vruXzAw4zm88b7sfa71KsXrDJkMZlbsaaHPDNWobr/t6lgzMvNXENKcBymq0eXqZB54cSOCe/wYLlYLVeZkTA4JAXx1UjphjypcIcFQiTtMrqPgP2VKQRyyX+d1bpkWJgsvTvHKZYIuXKYnErA402BNxGSPOtlKF8UQgDNGQCKG+CGPCPfQRJSNClhlalhW8ojAMKkK2ARTteO7olAXn2b9fE35XFRk1p5IczmCFhlRsUcU+ZeXFUZekU7o+Vbkj99mXF4xifwbn7qGvQHTAfnxEZP7sU9U5vZ+yCHcdsFYJnKJiJAcSOOvZSbClh7COCk2wnCWu48nIjERN1kRNl+wyaJ3x1m2P4GIwETa9kYYfdERKZovxgo/PINIw0TeiEgsUySjtzpb8HgOkZpJJbuwFSYCNlReJ2nTvFvjOUQuW1wH0MgQaxy4MjvuK2712LOIECBSLR6hnxaJEGEAj8hPi0Tw4sBnY36LRJIIwueohBaJ/EPBfZ/DK9okgs6H9TlOxIWIFFr30E+0yvG590J0eLgHvEh+q8f9BilwUrwKdcXwMjeBLeWffLLeyXE/aLD3u+dGXGRwUyrSsVQ/5HwtcS7nnzAlriR+xFl6cmCWf8KUON0ErED3gVizxD8WT3TAfaxxQIhrY/4sLvmtP+ICOsnd4SfmJUPie6tBEEhDy59IpaD228Muoko66yPTtonm0OY0OSns9qB7GpPl1Rc7c8y9tLSxcXSkSCg+jSEEisZ5MudC5e0KNpZNPriYuaq2gZhxN5/PL5UA2J1TKKWwHA5r1yNZSgNl2hYpb5m3q12Ra0u2YYWrABtbDKZKTuPblnzIjmvI4gSijkPfYODVFRA5CFaLBKSKQUQuqLYXc5srCfgoyCSwrgUoDLdfZMKK7H2AIp6h4kghdQsQtY9eHKq7YI186VtYlZ5UWXBlkxxWlrjUP6KLVDyv+qalSkdkPIe5J7cwDC4C7rlHD1RSpSaSjlAV2NSxbJBI2XaXTs9KT9q8HtEiJnKQ5OkpLFTES7NyrtmgSEMjVYhIslgVywlZkudRIKyqB8im5y5CqTgFUytVFvCJHiR2faDy199bijzhZ8lsL63DsasQdWkXeEdzKqvXoa3P1CGHDlBtUbUBWXChBFTIMMUquyAREGRedfC5UVOJfqALdlNkYdVwv+NUiZCXV6/YFzw63zqrwkx5w5wbOsxT8xzvAVbSmIffzJDvGSWceLngU6Zdfjzm9un0ODHsBNhgMTDdla1CduBvAnVBPhqUqnMHd+RVXIneYcQM3rqb/ajzsPim1LfhKo8RlK6k0dl6Rp/DwOD+tt09CyTKZe4vI6LYlvQbieAA468lQgfnfiMRpXy13S0XkPLVdqecQMlX231yBJIvv7uy2gSQr7Lt/rhDlq8HZVufg+G3ex96s+6z0alDAa8/4uZIHyTrSVn2f0gZ1R/+8Iffgv8JYKB3lAqPKgAAAABJRU5ErkJggg==;" parent="x03pLvb_-MmkTBM4rhX1-1" vertex="1">
          <mxGeometry x="75" y="130" width="30" height="30" as="geometry" />
        </mxCell>
        <mxCell id="fJF8-RRNtBRzqFDMRA4T-24" value="Stored Procedure" style="shape=image;verticalLabelPosition=bottom;labelBackgroundColor=default;verticalAlign=top;aspect=fixed;imageAspect=0;image=data:image/png,iVBORw0KGgoAAAANSUhEUgAAAMgAAADICAMAAACahl6sAAAAeFBMVEX///8AAADLy8vPz88vLy8zMzP8/Pz5+fljY2NnZ2fp6embm5sHBwfX19f39/ddXV0bGxsRERGDg4Pt7e2RkZEVFRXd3d1RUVGnp6e9vb1LS0s1NTUYGBgiIiJvb29GRkY9PT12dna1tbWwsLCIiIifn58oKChWVlaFMk1VAAAMiElEQVR4nO1da3uqMAw+iIIX8D4nOhWmc///H56pyNokbdOLsj3P3m/nzELfkjRpkrb//v3hD394DhbDtnsQAuPTLopm+1/PJf+iccFslLTdFS+Max5f2Hba7owPTpGAwaLt7rijKxKJXj7a7o8zskhGGbfdI0dEENl+3HafnICIRNF03XanXEAQiaJD3na37EESibLq18kXTSSKdse2e2YJFZEo2qza7psV1ESibJ623TsLaIh8ydd7291TY7zK444ALZEoelXK16qDEOerZ8wRSWfZ384MHcfydaKc4uQ0Vfx+tu0v4wf60eP1pzWHGgc8yuODvsnsc/2YTxMPXFlcMEDPG5gbzQbhnbbCMH5GQD1Z8Zodwq5v8o0njShagkeezE1uCGiK0gr66Q7Yg4cyJKtGMFOUd80vM6MCT91btO0G8T8/AnyOL0C3a23TOAuwKKiC0IimUDxSlRGhAT+oLZJJGB5ZgR5d2H3piZeBTF7D8JhR/tb7i9UzPn2YBPoen3QEcnHabHsIZ5XdnbjzqKjnTSfLYrWQRF5P44zFSo9FZ7mh5M5ZTz7ws94qymnQ0ZgtnURi/LHFz3Kcu3I0KrsRbZo0PCbuce2ihA/LnOxJCu1gdlJZWCWNrq1UyVjD6aDnYuMr8JCt2udR0HCUKgFD6KrO7Z8BBWugGQyah4dUNUjAcGb2HiTwd7VDQdHoBvK/l/JjX23bFzaf9BFS1QD4+7bjIwsn9MEBEI9+yByc7PBv7BrHUuPSMLzA/+uFXdWlskWxm4KlUZiZxrf/IKmqsZLmHYN0yBhL/s7I9HNxhus/IPMmqcnMxpZIq56t+feNMxNYqmqkO7E/NpHxT7EhJ+RZnC+/fHtUdlry+iy84ESUrC6vTWf90XlYcDB9Ezr0wm8nBXNhHKcVVGKP+POWaE2zH5E2l8yBcfJpIE6nhwd2zwKiqcLhVxVEC+Tgbz4C4qK7ZLcSdd1vRREMorRPuY3GokD+kMolyYnlzo5ioDzze/2+32Dv9W1XLoObC212Pm8H8V2faOFCfBB3dSXOdWePl79HAB7fJBGfwzUkoj3sub8bZw6sHFcA8TncPFYoIig7ZL1OFdAmEZRXYfjRSrRJBAWp2QaAQItEUsiDbwAItEiEyNt6WNdnEVlPJjDETFR2gPVjsu5XXJvwHCLpNSG0kT1+Iksor1IXl5jTjNmrpxBJ68TWWRpeECO8QFpJ5NflcfTC69YziKRNgm4m2u4KExGdlPe7j81j8gQiqZBozISFMZG363//VQjxsJg8nkgqJ0z7TdgJ5WmE5WYqxfQ4TB5OJIWJ37KeY8dvEcJbXbg0BCQVTPIJ8QwRWfekK4WyIYJ4fHn+l16tqh36w+Vv8wvNGBULkExGnEz8TjN/2xChEvHZOv4k/rv+46RDdfAFu+ZoFUDjrP4mFkSsKkq02KGQ7pnZUh0dsiASqKLgAhiZzc1NblAHrEQiBs87IBG46+TIbaj2qUVvzxCfCydaaE5lP1oTVhAmPVPAwL9GsMYnfLKpmriBJhk3b35kTAcvuCppQA/NPQm3oEtT2DFuFqnmgOnKp4i2wRsxYITTSaGnW63VljfjBH4Lw4s4yKhEV8KrpdTnyJLjpDxUvPgRc+R0oPfJsbSkTzZ1Q9/8Oj1U8S7G5G7MONsgJfzcGt39Ol6k6SJe79WCclBJ+dCsf2HzaUPSQYxmsmzmFd2vszonZpRaraY7ICbcwGyPOrigqpZnGk006nvwbDiuGjyTS4wYmx1tZNswJYbU9BvQBPOqcK7H0BV40QuHVt+Dajr9PnW5MSqJ1ldcavU9fOZ8CHTkVTPMCfgmhoIEjb53wxcozOU3aBZtXxgDPTGYZrW+h697GcvTb2aIcsjFYKa0uVLfPSqzIdJVZ72sJiXIHxhzhWAW/qyWx85QKScKfQ+k6e+DTVdRpD+jDdzwNBjVIrcgwyPT7etgvsaNFfoeRtN1+3HoDxJfutNdGJu/YMkn9T2MpmvtFGmph7dlUr0u0AUW3vASi9L3MBUZug9CTqfjurylrP+tW1fiCjli3PiaHr8Xam3SOe6kZN3jePe8rm4kiDgVivdxNT1ZXiXhoJpHdUS+LXVnVNSCXMHR1oVICCJI35ma3uxIyhSFkDoisfiQ7VW7R/e/NV8r1jyAihyCcmyupn83U3xCHZH7/Hmba8pU2Ba2ad6/ULcniSSyUjE1XSwYRuEmI5F7DLe8PyC/y0X3ez4iUtdaIrK+czVdirCT5C2IRIO7/yKGfKyJiPrO1XQ5nH+mCp/5ovUNKeRjK1qSvjM1HXiA0cmSyN0eJmA3jrTusFX2LxzvAq+MVQAAlzzKiA+pI9JMdHI0VY71WU6/VxQ352DAPHdghRw6Qt95BlGMpoKHWBrEG9J1tV+y9yYRJwlgfdf1Q0gNfW/H3YJh1LkoYY5PotIrZySUWqdRGLO7JZwC8dQGQ4OcKDAmY/l4muC68bffoSWj7niBMBXTFflsYuIu9q9bRQJjJojR1U/JYHoQxioaZLtDGMHCu1pvUJjSZNg5jqr+ATASxzRZ7+dogQLniuva8KPIw+0nUEaj9c4NDD4Y0hFAw7bh90OoZ3eDu1nJv9ZvqV2ADxj+kLeFpvJD7xbAqj+dVzeGdSjhz63STUUGRw2GbNSlyij4G35fh87/MbnOqO1EMc4LqIYP2DGkzjtdoQ1QYu3qkRpfoCmbcuX8MEJ9kaHTdzLRM0fe3ZAKGpr2z9piYTzcQ63vQ9o0zuRa2M6AtlL8LVMsmA8lUuq7Jhnaq5pkqNpP5O9iY4CT01YlunzT08QxNs5Iepw30vruXzAw4zm88b7sfa71KsXrDJkMZlbsaaHPDNWobr/t6lgzMvNXENKcBymq0eXqZB54cSOCe/wYLlYLVeZkTA4JAXx1UjphjypcIcFQiTtMrqPgP2VKQRyyX+d1bpkWJgsvTvHKZYIuXKYnErA402BNxGSPOtlKF8UQgDNGQCKG+CGPCPfQRJSNClhlalhW8ojAMKkK2ARTteO7olAXn2b9fE35XFRk1p5IczmCFhlRsUcU+ZeXFUZekU7o+Vbkj99mXF4xifwbn7qGvQHTAfnxEZP7sU9U5vZ+yCHcdsFYJnKJiJAcSOOvZSbClh7COCk2wnCWu48nIjERN1kRNl+wyaJ3x1m2P4GIwETa9kYYfdERKZovxgo/PINIw0TeiEgsUySjtzpb8HgOkZpJJbuwFSYCNlReJ2nTvFvjOUQuW1wH0MgQaxy4MjvuK2712LOIECBSLR6hnxaJEGEAj8hPi0Tw4sBnY36LRJIIwueohBaJ/EPBfZ/DK9okgs6H9TlOxIWIFFr30E+0yvG590J0eLgHvEh+q8f9BilwUrwKdcXwMjeBLeWffLLeyXE/aLD3u+dGXGRwUyrSsVQ/5HwtcS7nnzAlriR+xFl6cmCWf8KUON0ErED3gVizxD8WT3TAfaxxQIhrY/4sLvmtP+ICOsnd4SfmJUPie6tBEEhDy59IpaD228Muoko66yPTtonm0OY0OSns9qB7GpPl1Rc7c8y9tLSxcXSkSCg+jSEEisZ5MudC5e0KNpZNPriYuaq2gZhxN5/PL5UA2J1TKKWwHA5r1yNZSgNl2hYpb5m3q12Ra0u2YYWrABtbDKZKTuPblnzIjmvI4gSijkPfYODVFRA5CFaLBKSKQUQuqLYXc5srCfgoyCSwrgUoDLdfZMKK7H2AIp6h4kghdQsQtY9eHKq7YI186VtYlZ5UWXBlkxxWlrjUP6KLVDyv+qalSkdkPIe5J7cwDC4C7rlHD1RSpSaSjlAV2NSxbJBI2XaXTs9KT9q8HtEiJnKQ5OkpLFTES7NyrtmgSEMjVYhIslgVywlZkudRIKyqB8im5y5CqTgFUytVFvCJHiR2faDy199bijzhZ8lsL63DsasQdWkXeEdzKqvXoa3P1CGHDlBtUbUBWXChBFTIMMUquyAREGRedfC5UVOJfqALdlNkYdVwv+NUiZCXV6/YFzw63zqrwkx5w5wbOsxT8xzvAVbSmIffzJDvGSWceLngU6Zdfjzm9un0ODHsBNhgMTDdla1CduBvAnVBPhqUqnMHd+RVXIneYcQM3rqb/ajzsPim1LfhKo8RlK6k0dl6Rp/DwOD+tt09CyTKZe4vI6LYlvQbieAA468lQgfnfiMRpXy13S0XkPLVdqecQMlX231yBJIvv7uy2gSQr7Lt/rhDlq8HZVufg+G3ex96s+6z0alDAa8/4uZIHyTrSVn2f0gZ1R/+8Iffgv8JYKB3lAqPKgAAAABJRU5ErkJggg==;" parent="x03pLvb_-MmkTBM4rhX1-1" vertex="1">
          <mxGeometry x="47" y="190" width="30" height="30" as="geometry" />
        </mxCell>
        <mxCell id="PBCIWhnRz8p9FUuJZw2E-3" value="" style="group" parent="1" vertex="1" connectable="0">
          <mxGeometry x="488" y="40" width="144" height="140" as="geometry" />
        </mxCell>
        <mxCell id="fJF8-RRNtBRzqFDMRA4T-51" value="" style="rounded=1;whiteSpace=wrap;html=1;shadow=1;" parent="PBCIWhnRz8p9FUuJZw2E-3" vertex="1">
          <mxGeometry width="144" height="140" as="geometry" />
        </mxCell>
        <mxCell id="PBCIWhnRz8p9FUuJZw2E-1" value="pub.bista" style="shape=image;verticalLabelPosition=bottom;labelBackgroundColor=default;verticalAlign=top;aspect=fixed;imageAspect=0;image=https://encrypted-tbn0.gstatic.com/images?q=tbn:ANd9GcT-bDwiAeV5WEyGj-YXBPmm02qwcvZvkZ2KU-w98TlcpQeXnxC-r3VyIVNoHyJ0uEZHEZ4&amp;usqp=CAU;" parent="PBCIWhnRz8p9FUuJZw2E-3" vertex="1">
          <mxGeometry x="28.5" y="21.5" width="87" height="87" as="geometry" />
        </mxCell>
        <mxCell id="fpk_gtEA1vVm21kXCK9b-17" style="edgeStyle=orthogonalEdgeStyle;rounded=1;orthogonalLoop=1;jettySize=auto;html=1;strokeWidth=3;entryX=0;entryY=0.75;entryDx=0;entryDy=0;exitX=1;exitY=0.25;exitDx=0;exitDy=0;" parent="1" source="fJF8-RRNtBRzqFDMRA4T-10" target="fJF8-RRNtBRzqFDMRA4T-49" edge="1">
          <mxGeometry relative="1" as="geometry">
            <mxPoint x="261" y="795" as="sourcePoint" />
            <mxPoint x="410" y="720" as="targetPoint" />
          </mxGeometry>
        </mxCell>
        <mxCell id="x03pLvb_-MmkTBM4rhX1-9" value="" style="group" vertex="1" connectable="0" parent="1">
          <mxGeometry x="345" y="265" width="430" height="250" as="geometry" />
        </mxCell>
        <mxCell id="fJF8-RRNtBRzqFDMRA4T-10" value="" style="rounded=1;whiteSpace=wrap;html=1;shadow=1;" parent="x03pLvb_-MmkTBM4rhX1-9" vertex="1">
          <mxGeometry width="430" height="250" as="geometry" />
        </mxCell>
        <mxCell id="fJF8-RRNtBRzqFDMRA4T-5" value="REST API" style="shape=image;verticalLabelPosition=bottom;labelBackgroundColor=default;verticalAlign=top;aspect=fixed;imageAspect=0;image=data:image/png,iVBORw0KGgoAAAANSUhEUgAAAQsAAAC9CAMAAACTb6i8AAABHVBMVEX+/v4zMzP7+/v8/Pz////9/f333x4+hj0oKCgAAACKior4+PhxqWEtLS0TExPn5+d1rWJtpV8iIiJamFR4smDMzMx3tF6lpaVon2Nfmll1tVpnn1p/f38aGhp4eHhztlexsbH33gD9+/Df6d5yuVOhwJ5FRUW+vr5gYGDJ2shuvE1rv0dtbW378sJRkUrV1dWampri4uL45WVaWlpPT0+4z7agoKC5ubmFr4FxpG3k7OM6OjotfyxWl0zt3B1XnUqTuJDA1L6pxaZiXQz/7h+EtXVlo1Ggx5O41q7T5s2Hw3Gh0ZFetjVNpyxfqklKkkNWqUIUdhM1gjR3pXbbxxnAsheQhhF9dQ//9yDhzhtQTgo8OQiypBUjJQUTEQKJPFABAAAT70lEQVR4nO2cC3/aSJLAhbp6DHSAHTjGMMaErBcbEs7AAcYmceJ4stl7zCU3SWb39nb2vv/HuKp+SwgwtwnCtuqXsUFImu6/6t2NgyCTTDLJJJNMMskkk0wegwCkPYK9ERiKjIYSqBSODzMYUqBSzlVzZxmNQLHI5crTYUZDs8iVyu3Ko6ehWeRy+fIofOQwLAukcVx53DA8Frl8MWORsVCSsXCSsXCSsXCSsXCSsXCSsXCSsXCSsXCSsXCSsXCSsXCSsXBy31jAFh2nbU6VP+7EYl9aXgDjUf2OgwFYiDsOG0AivgsLgMpdB/BNBUC0yvny4C7dSICTP76/vr3TsAFG5WoHcWxmgSMolE/Tbw4DHB7nc9SbLbJNYwHxp/e/e/LkvNnfOGyAs1w1lzs+rW9kAdCp5vegOQxQf1k1A83P144F4F+f/vA7ZPF98/pqseHU8fRY3hRnWMyvY+GNIF++SA8G6m/PPTR6iqv1FODfnj794Z+IxZNms3l9s9ptkNUVSuamJYdimUVsBNVSWmtKIIrlUs6X0iq3gS7z358//VGz+B5h1K5nK4aNVlfO5xIlzgLC+AjKk3EKNLSZxkdbHgXLY4HwP35+/gfH4ghhHF0fJbkN3+o2sMAR5JdGUCq3dr0UjUM+PU4cb7UUdxvoKH5+8fwPHgtSjObR0fVl3G3ErW4NC4DhNHEEeYo+O4FghjyIKacnx5G1T3QUzxFFlMWRgnF03fWDDzqKYmHlbSMs1o6g+nJ32Qaw0WoSOen8rWdER/HzixeJLAjG0dFbO+pkq0tkAcFolU+RQn5rRyymKy3aDLqqlz6h/58vXiSwkB5Dwri+MnetrLC6ZRYgShtGUCrUdwIDRGHDmNFOhnrUjfOVLJRefP+qr08drFcKn8XhpoeRK/V2xGKNe1tm8SGRhbWSmmXRW2d394ZFtXwcm4fH4nw9i4PVLJa8x0oWpeP4AFJigVE0jEdYn8WHRBbaSmorWWBsjLvoVSywbIkH2FRYlAojWV5HY4BjcS0VI4FFTcI4WMGiVCiKpWwjmUX+mMpZmOf9g2mwyOusGzAf9sZiWRxdX5+/SWZBMM5XsCj35G1jWWgii3IxRBIcKM7649o5i9LUZjUAbTcZn8X1+fNEFufI4iCZRdXWWACj5TrVZ3GMeRUsPlMfAMbWTqql8c5Z5FtehnnoRm1ZfP/mzfX1m2QW56QWiSzyLm+E8XL/wmdRFhDe1BqN5ucFhG5r144Sz5UsLpJZII3nLxJZ1A6+AosKnCAKhHGrB7ayWk6bxZM3UpJZkFocfPpaLGZqYOu6KPvA4uBDMgui8XVZ7LpK3YbFe0Lx8eBghV7gf/84i8U5sTh/C6xQLt61zZ4Giw+kFgekGIk28o+zwDRE3NSaVycQwHDXXa0tWXz48JHcwgp/kcyiOnYxtePmncQi36JU7+StznJ2SmJ7FqQWBwdvVvjO84OkXKugOnWYMky83Dox15L997Qa4Fux+OHDhwMlT7dhgYn1IUC8u7yiHjlO70sEW7H48b/eaBYfV8TUZBayUxfvc62qzdJbJ9qSxYGRH7djgTTiXYrV/YvdZZpR2YrF04+WxcdkFl+pl1PdsGz37VmUDz0Wddf7syz++MmyOHifyOKXkzv3+Kojfeo8qbOWhttwLMjB+R+c2ZasZSEarxyMBBafXs1M9Bxu6ILnqjnT3Yb4epkU2X9PJ78oUeCLfgKmVW9Y4KH+gaXxfonFL5fuFhCuXR3Jl72vI65YU9q529AskpYuMQq25ROzLOjY7StjKDEWnxqRhbN1q2bxtcFVa43V0m4WA8wwiEX1ZfKStl7a81jQBZe/KBrXPouP50sLqitXU4+nS+BXLC3lC7tlUciv+foswLxULQ8jjgROmspQHIvax8T9OYAxYmmGK/YSLC+zKwf6NSZ5V4He+rVsCEbTJU/y9hPRODcsri9XFZSR3RfrncDSqmoKX+rdlP4n1QcAXTKUJ5LFNVaVEDk94grGE6+jurZLFVnvX6eteyYgPr/6RIpBC8o+if7nxmXMicrdWlLnN3WprNsoUe/inqCQbqP26ujJ+y735724pLZUrSuiHuaConM+f4cuFbmN/C6bnF9HAGbNP/kqAKyLJGqIo9mcRVVDtAuF4p2+qYxuoz1If0vj1hJxDehRm00ksYCTK6TR6MeyjTvrfHoNjK8kaDJXzUZTulFHJUIjvcHtVmBxQ5Zh3CjwW7KW7sYdsw9PIFBT9xyC9KIOzmMRjKPLJhExGvn2MViJmnNjeX+ndhtyUzAsbme3Jw8dBnSXQqj7LKQPa30I+G3/tj/b7dLPzgX6Nf3oEz+VbuNcwMli9vaWv33gLLrNpilHwP0G9xoNpQ8nJ7OTrug/eBY10/VaLEQgnebstns7O9Ffq1rUaGtJtw/9Lt98u/vsYImFfhV+PL/BaNFvyM1bzVpTNj+xbGmSPsxmm90FZqfDe1aI+OKzqDW6WKOQt6zRP/Qj4FjcIbMGMSkcF6b39m8KxVkIRIEKgNXYDGHQcrlmcYdbwan8glfuvmpGnEW/ScoRaKfZ3YrFmWrkHHceDAsEoL5/GdRqn7dioTf5+ct390riLBZoIzf9RSh5sCDYhoX+Yl6+/UBYwA0m5Og5G5fdvtp18XhZBHBLIZW2nzVrN/yRs4DgZNa9vML8otHczl88NBY85DoDX9xiUF3AI2bRqDXsQvQtVSKPmMUl6YL96HGzwGyTWlkkmHbVxGNmAVdIoHF5efmZelqzzb4TnDgWTnYzi68jSyzYjSxTG1SpzjbmFwDjeUfLfKBWlksTd+heLRrJ/oVqVKiYGsBidnN5dXXZfSvb4qp/serqcFKuWjGL7CV3qBxf499noWChmp2GRRBRcGDdxhoWG7e45af3iMXiXDfBqVzvLm23oVZ4k6+Yz12+KFzYzfervoq4xREMobeRcZslksVKtRhv+qJ3bIPUvguw2/NGg74k1jiPzJq+/dBo1tYsnfl/PmeVlO8TC9X4b8ptF/5acnCHJVV4uXF7cPme/U11pNG9urrpu3wgeV1x+cJxOb/2D07kC/P7hSKwsUMsdH/v5HPyuuLSdZXWqZWXmsBLd6h9ryzECWBlWutSmaocxaq/JxS9aDnvLLX8g99+3N9C9DaDPi0LrFlXXH39fa9HfNExlFZGPm9wFImXPyQWcjub7PBtdhRJFz8sFpRU3HZnCX+V6y6XPjQW8X2/21z54Fj8/yVj4SRj4SRj4SRj4cR8OTM/ylhARXV27lP3Zq1w+4N+cW7fmM955FROYt5Cp5DP5wsX4F3tXbd0L+9/xmOXbN4ZtgNhTAgRSsHf9IrJN4wx9Vr+4voNvkJRZ4Q8hPGoNRqCPF2ea+8V6nvJU5n8rU7Rx+Qr/177AIMRA/zBEYqCIGdJLBgxYFzOn+HUaBLcijyL8jROszZzQhZq5sLci27DFAt5Ozl9wek0ey+2Lyw4TYAmRuNXIw+NcPs0zcxCdQLj+pB5rvbBq5toDfPvxmJv9AX4Q16cNggUprWa26kLbSJSDWjS8qHqaevRk7qEziCsBghnDcq87M2sGYX6fsZ2pLqEYi9Y6BFyxqxxc/vwuNV8O2U9T8UCvYKZWCjnZDyCOWSNR9obnSqMKTJLdl9YcGXOTLJgBogIvaPKozD9OJmaNNcIhDrO9fyT7qVvxvURYRRC+yTFcB9YMN+HqakLZyVqDpoOV57CstAuQ/tFTSp2L7pOutYYaXkH+Z7Lf2w/fGfEnystFtaxhUxPWbPwbSQ0z9g3IB65mXEY3DoH6UREqDWL7ZfvjDxLLwmwhs5NVODaozL1sY4JyglYarF7mZtZp2Gdh7YQxYLth41E9cIEPTlAxyI0UYaZGBFlYfKpZK7h/WQR6fnTHj9lzd6EojkS+U4DkIsIDNIG+qUzM5PAsmjIsaenDSKQLPxYKeoxEXLMxoE4G9F5goypobaR0IVLmz/o/0IjLsO3QVzlbmmDCCjXCj0J6oPOYUSEm4eJFy5VUhCEgRAX5s6LkLA3M1z2Jab6Qw2hfhgxEYAwdE9QKwcB4DbFEiqkMG/aIrRHzHXCqJ5FENqajUqh/dALO16mWHCTKtjMymiDMKWGLrC4NAudXRt7kNeZQCo5Cc8MjUM1mT6dwfj+5BeCHosaECO9UOWpLT+YLjNM/sRDU6dqR6giRmjqEekPTZXOVCiOuwjrXM1t94WF0wEMI8hCpYnqMJdFh3BJlGNhUkjGTdrlG4VJKYRloZIsldMuswj3hIW1EI+FPsq9SIrDBs5oA7neQa5hyJJGvqcpgWpphLoVwJTnsZTMpYYrU0j2hQV3+ZKxEesCOR/LtpV60lAXQZ2HwM5ag0HrjIGsJypjDmLeGtQDnPl41B60LyogXQO+H44GeOpcBMp6YFjE90W8VFmGJr43ccQLmpqFiwWciWkl0HUqDNsAPQ7D6WFFiEpngpjQj9Y7UJ/OKzjZIGy3hljGD9vFQNVm7eIY31c60zoQGjEYjdFMKofTMUgrk2ayP/UI07mU7M6RjdiKUpZjvDIBHTrFBK1jAPWeAC4NZoAzDHl9Xh+gWTA6YSjNARWoR3YC7TqQAnAIp2M8AXpDkAYB4rQCXOcrOgilDSIgFqY8pX/EwqvL6EVwVgTJAno4fhiICZjIABNShnpnIO0/hIF82lK/6CI2boEOHUEFzwmGRVAuNERbAVPKas+aNojA+U41c6h3ICL0EFv0+EMYzXFmMCiOA93CkDPCSyZDWW4E9RHYu0G7EsDZHFTaQSARUAddivm8B9afqhicNoggygKVYHg68KVXoVFO8CfUW/RQodcCo9U0Iwwj9VPlXVFl3L1geAGclEzfGFqCw5xoGlamB8RlZGU8+gzSYSFoVcMETlR4iJaqZO0VfIjoLGQgQC/oUnK4qOOMlQ0x0QZhk2x0k+hYp2DTUVD3MZrDwBSu/5woqagJEyYhpsGBfJQ0Wb/ggrMROQv5clLhtpUlw06gn75yNXptgIwJT57TX9YEbm4Eh/QnyXT5IlSmHjxLlN+nwoL5MRUnFPg9LV2JwGhwptQbJlRAMNPpGheRxVxRms+FJ+EA4zCMi9NiXaj5461g3JqO6iEYU8HcH559lyDpsRCh6TRJFtqRyuRRhReoVzHLkMlTz7o/OqeC4UCyEAI6vZYvRUGlDrDh4WBAyZeKJxAOL3qDwwqYRirfIxbGmasilBRdDlG3wmW3W2BEFBPtICe2TUc/tF5I3enU4yFINQMBxLDVFjKpopQd39fbRVPp7yUL+ZxB5Reqk8ekbtDTxOyqrnIF9BeBdo9C+QhlI5SHdCA0DR5yGHhyqNcOAAMvOU9SQS7V46wHKhjtEwtVVRvnoHJwVZly3d5l0MJkG0Yd0nMZR7ReYNYwGgZQnwfy2goFXVXWEQx8NwK92oKQL85AXJhL8T7FoUzT+V6xEF6XWuXgxhlofYGODBSUVZK/cAkVfoRPG7TvpPQptCUu5ZyUT+l4xGF8ARhmbf1OwVs2PvaKhe62qDGCSY+0tuCPYDyQs+diijaPeacw6PDsEVA9EqgQM5LliQpM9NyhZ0MUD4aHgOSYaf0FmJNKCwz2kwULXX6hWMggM9HDhyFCgUGlDXoBLQgnGCu49hd45hRnp1YLgQBCp2PqES7ZjM5MQ4Bhjq7aZHvFwtkIZ0u934BL01CqDZ0LwDp13pLpaACCyk7JgnpaaDH1XkgdHRbAeEJxAyZUpxIaOGtT4D2lnV2YnwRwiMmqXDvxWHz5gj9e//pr2nrBVNMO6u0zkvn8TAtVZHrxVNbgg0B2K1hY6WBSyUz8kMagOhscQ2hLbrzhot2u06n1gczTmei1hvgJvh+pmIOXOxaFwuvvfi2gfEmZhe5PV85iUgezu4C8JbJAnxGeFdvtYh1k+hVWKsbDMCpO2u0WplKKHrrMw1Z7QAeUC9LvO/p9hMU7YlEo/PkvhT+nxEK1tt0CSEAtCA6oxoEqHU1Hl8utFsgi1F3LQAEUjAvTIjTVpvWu6FS8A8y8JYpc5XM8ohd/LRT++91fn6XFgqs1T6Y3oAhh1y/0vgm5k8ssiCoWzNtRIc/U2Znu6HKzXUuoM236wvzujTxBRFngfz99eZdePWL1Qo7f24OlkgzlWbVyCMUiDL0FeVvk6p0rrnSLLi3qjSeh6aFJUHEW5C/+53XKMVX5A9IKoTZ6MtOLlIog5IK6IL3QGhTqjUmC6bfK/rnZcaI2eAr12663mFYzZ2qrV8xGMI78BWmkGFPdnhHB7LNmZo7cf7jQcyysniuzEpZRaNdPlaYxu+RqmwGhUTbD4pliga7iu78VfktPL4ziCtlfMSuBZkeR22tFqUNdVfjMdbGd1ltfoMsQofxPaPaJajNy4vzFl5/evUZ9+PL33969+yk9FnYbBLEwbkBpi9L6iIDdZBEqZ2lA2PVlGW+kDzZORumWcicRoZWGZ9o+/hcdxbvfCoW/44vXKcWR0NmIXRPXNuI0mtnJmwLfYyEsC4MvItqBugJQn6HupVm8/gkjCJrIr39DJGnmWsx71r6uC233egracNzndqM8M3oRiSuWhE/afGr0kT+TMFSX0/xOq9/phhqZAzcs3Ada5c0uJYsisv0m4V4irnWGnoxF/5IoafkL6iPoabupc+aUQK8wuj0qcmO/3pUm0zHzBQCm92T4iYXap2daYUJFbrubLVTpXvSL8mmtj3gxQD5Cbp8vY968hMkRWOzh+zt9Ix8Is1lFML130d5K2M2BrvmTyuyjwreT7c7f5uy0QWSSSSaZZJJJJplkkkkmmWSSSSaZZJLJN5H/AyrxJ8CvVy8fAAAAAElFTkSuQmCC;direction=east;" parent="x03pLvb_-MmkTBM4rhX1-9" vertex="1">
          <mxGeometry x="138.14" y="20" width="139.86" height="99" as="geometry" />
        </mxCell>
        <mxCell id="fJF8-RRNtBRzqFDMRA4T-42" style="edgeStyle=orthogonalEdgeStyle;rounded=1;orthogonalLoop=1;jettySize=auto;html=1;entryX=0;entryY=0.5;entryDx=0;entryDy=0;strokeWidth=3;exitX=1;exitY=0.25;exitDx=0;exitDy=0;" parent="x03pLvb_-MmkTBM4rhX1-9" source="fpk_gtEA1vVm21kXCK9b-21" target="fpk_gtEA1vVm21kXCK9b-12" edge="1">
          <mxGeometry relative="1" as="geometry">
            <mxPoint x="130" y="185" as="sourcePoint" />
            <Array as="points">
              <mxPoint x="280" y="156" />
              <mxPoint x="280" y="69" />
            </Array>
          </mxGeometry>
        </mxCell>
        <mxCell id="fpk_gtEA1vVm21kXCK9b-16" style="edgeStyle=orthogonalEdgeStyle;rounded=1;orthogonalLoop=1;jettySize=auto;html=1;strokeWidth=3;exitX=1;exitY=0.75;exitDx=0;exitDy=0;entryX=0;entryY=0.5;entryDx=0;entryDy=0;" parent="x03pLvb_-MmkTBM4rhX1-9" target="fJF8-RRNtBRzqFDMRA4T-38" edge="1" source="fJF8-RRNtBRzqFDMRA4T-33">
          <mxGeometry relative="1" as="geometry">
            <mxPoint x="303" y="35" as="sourcePoint" />
            <mxPoint x="505" y="240" as="targetPoint" />
            <Array as="points">
              <mxPoint x="275" y="205" />
              <mxPoint x="275" y="184" />
            </Array>
          </mxGeometry>
        </mxCell>
        <mxCell id="RtOyRWhycByXUKqJibE9-9" value="" style="group" parent="x03pLvb_-MmkTBM4rhX1-9" vertex="1" connectable="0">
          <mxGeometry x="303" y="135" width="110" height="97" as="geometry" />
        </mxCell>
        <mxCell id="x03pLvb_-MmkTBM4rhX1-7" value="" style="group" vertex="1" connectable="0" parent="RtOyRWhycByXUKqJibE9-9">
          <mxGeometry width="110" height="97" as="geometry" />
        </mxCell>
        <mxCell id="fJF8-RRNtBRzqFDMRA4T-38" value="" style="rounded=1;whiteSpace=wrap;html=1;shadow=1;" parent="x03pLvb_-MmkTBM4rhX1-7" vertex="1">
          <mxGeometry width="110" height="97" as="geometry" />
        </mxCell>
        <mxCell id="RtOyRWhycByXUKqJibE9-4" value="&lt;div&gt;json-file&lt;/div&gt;" style="shape=image;html=1;verticalAlign=top;verticalLabelPosition=bottom;labelBackgroundColor=#ffffff;imageAspect=0;aspect=fixed;image=https://cdn1.iconfinder.com/data/icons/bootstrap-vol-3/16/filetype-json-128.png" parent="x03pLvb_-MmkTBM4rhX1-7" vertex="1">
          <mxGeometry x="13" y="10" width="30" height="30" as="geometry" />
        </mxCell>
        <mxCell id="RtOyRWhycByXUKqJibE9-6" value="&lt;div&gt;json-file&lt;/div&gt;" style="shape=image;html=1;verticalAlign=top;verticalLabelPosition=bottom;labelBackgroundColor=#ffffff;imageAspect=0;aspect=fixed;image=https://cdn1.iconfinder.com/data/icons/bootstrap-vol-3/16/filetype-json-128.png" parent="x03pLvb_-MmkTBM4rhX1-7" vertex="1">
          <mxGeometry x="62" y="37" width="30" height="30" as="geometry" />
        </mxCell>
        <mxCell id="x03pLvb_-MmkTBM4rhX1-4" value="" style="group" vertex="1" connectable="0" parent="x03pLvb_-MmkTBM4rhX1-9">
          <mxGeometry x="20" y="20" width="80" height="80" as="geometry" />
        </mxCell>
        <mxCell id="fJF8-RRNtBRzqFDMRA4T-29" value="" style="rounded=1;whiteSpace=wrap;html=1;shadow=1;" parent="x03pLvb_-MmkTBM4rhX1-4" vertex="1">
          <mxGeometry width="80" height="80" as="geometry" />
        </mxCell>
        <mxCell id="fJF8-RRNtBRzqFDMRA4T-31" value="Cashing" style="shape=image;verticalLabelPosition=bottom;labelBackgroundColor=default;verticalAlign=top;aspect=fixed;imageAspect=0;image=https://encrypted-tbn0.gstatic.com/images?q=tbn:ANd9GcSVmRArVRTNT7ljnw70dKTl4dbzjQv4mXRAmw&amp;usqp=CAU;" parent="x03pLvb_-MmkTBM4rhX1-4" vertex="1">
          <mxGeometry x="20" y="10" width="40" height="40" as="geometry" />
        </mxCell>
        <mxCell id="fJF8-RRNtBRzqFDMRA4T-34" value="" style="group" parent="x03pLvb_-MmkTBM4rhX1-9" vertex="1" connectable="0">
          <mxGeometry x="15" y="132" width="110" height="100" as="geometry" />
        </mxCell>
        <mxCell id="fJF8-RRNtBRzqFDMRA4T-33" value="" style="rounded=1;whiteSpace=wrap;html=1;shadow=1;" parent="fJF8-RRNtBRzqFDMRA4T-34" vertex="1">
          <mxGeometry width="110" height="97" as="geometry" />
        </mxCell>
        <mxCell id="fJF8-RRNtBRzqFDMRA4T-21" value="Authentifizierung" style="shape=image;verticalLabelPosition=bottom;labelBackgroundColor=default;verticalAlign=top;aspect=fixed;imageAspect=0;image=data:image/png,iVBORw0KGgoAAAANSUhEUgAAAOEAAADhCAMAAAAJbSJIAAAAhFBMVEX///8AAACamppnZ2dra2v19fX6+vrk5OT8/PxqamrU1NTJycnb29vw8PDr6+tjY2NLS0vBwcG0tLQlJSWEhIRZWVm6urrf39+BgYE3NzcsLCyRkZF0dHQZGRnOzs5zc3MODg6goKCVlZU7OzupqalEREROTk4xMTEfHx8LCwsXFxdVVVXzTVPvAAAL7ElEQVR4nO1d62KqvBIVFXCjaMX7pVZbbWv7/u93qm63mUkyCSEw9Dusv6LOIslkMre0Wg0aNGjQoEGDBg0aNGjwCxFzC1Ayom2wDLmFKBO7dRAE6x23GOVhE9yw4RakJAxWwR2rAbcwJaC3CURsetwC+UZ/FUCs+twieUXaCWR0Um6xvCFqK/hd0I64RfOD+VpD8GfjmHML5wG7Jy2/C55+++a4mJH8LvhecAtZAPHWyO+C7W/lGL9Y8bvg5Tfa40N7fleOQ26Bc2LxRzsldR90f9M47kY6GqO4FWuVT+e36NW5fn8Y3x7Qfv70C/bHsP2slX96t7ajpfaZz5rbOQmxPYzEdaafqj8rtbZHq/RImC8nfJQYvxEPZ3U0yncve73IgWp9ZcTzX39qdrhKpoS0wfmg+ZruzHH71iaplIMe4W46ISVt651r4euZ+urzdMc+XRdZh6QXBK+0jOmG/vpXJ+OzWofzrf7kd+dndo6aOP6cIreVs4zC/kFrtjzwqVt/+OeIPfQfRu1xWsVWGcaDbGqamDesjvYChYcPm5+cdKbZIC7BZ94Lh4ukPz8sZycrbhd8j/O5C3tj2hcg8jzNlod5P1kMw6IuyZfznlR1evxxMUsSlUPOAud9sHVk6PiPk7brWS99NaouNbpVMhyNi+iDXt9Cg7Ey3BQ/xsYbyvxjZXh+8WVL7ro5SVbB8Lk79qnFo/Gfzzox/Jz2/duPYX9qrXfKZTg7ludCio92iqc0hpPZsfwTzuA4M45lGQyfZ8v5orIo52I8nVG2q2eGq+3rfFh9QkU47Le3OM7qleHXx2x6zBLuXJEwyY7T2ceXd4b1S5/YeGbY9iqdD7QbhhZoGPKiYWiDhmEOhOmiPx73Bx4thRoxDHeb2eMo9L6c+wlo14Zh8iIblN8+AqE1YTjW+UHbha32WjBMThp+P9hnjlLdUQeG+lj2Fe/F1iM/wyER5P2LsaNgV7Az7Bv5/eDVUbILuBnqM0oAlo6itdgZju0IBsHUUTZuhjtbggUmKivDoT1BdZqGDVgZKkOB+/WH2o3tuGlwMnyVWUzHaRhFYZq05T3kyU06RoYxpvAGJuJAcmMfnaRjZIgZSAR2yIf97HSk4mOYQPEnikSREL0Ey5wNCD6GXSD8hzooBXMYP13CxmwM4U6hnYDQn+5yzmBjeACia3MyeiBv5dtBOjaGIHZCxAKg2eOga7gYpqLc5PoC69XBsOFiCM4UpI4ciE86pPxwMQSptLQ9Jro41vml42IomqQGc+wgvoz8C5GL4cT+O8A0yJ8Ix8QwEmOzBjdMKDLMXy7DxBDs96Y8DfHZ/OlUTAzBucKUuiyOdzGGf3J/+4aiY2hiKCav/RqGYMOvbpZWyLAlhmEMmgaMdzFNUyVD8XBr8BQCn3H+cgMuhmJN2hv9qJgQs88vHRfDg/3AiIE3w8tQgYshmHrkNAVPOqRccTEECpI0vYFT1SF/mo0hcDJ19M/B6kMH6dgYwqCT1gED3TkuFSFsDCOYZq/Z9aO1zVMk2Bhin75S+BQG+N9dpONjmKJaKcVEHSCnt1O0m4+hFJjpYqcwLv91C80wMmxJQbSlUK8QHqR6GLcCUU6GCaYQBKfNfBHHcb+tqJ9wTLDmZNgyVvYC8o7SsTJsfedg6Jo3xMuwp6mLUMC56IaXYSu0LRh2L+hjZthK7UaxQMUiN0Oryrd1kao3dob6TkoPvBdJ3WNmaOi09w9v7hxFhsQpjYQzwzhHfe2Ta0chToZk2xkZS7eEaD6GCyL1WY2JUxczNoZUbyQtjAmKg12CR5qLoSG3W4cR+aPZ1X5AFjoPw8ip58MFK6Lcvat8hoVhqN8jJqdZpzN60reh+dTu/o+kDTDSHAx19vb2OEj/tpKJ0jhbamxWzSFDzEoRzXQGhpFKiZ6nisND3FaRVIsJ5r24FBkYKhoFvmn9pX3pCKlO24e2gzhNq2coa9EPMtNp9w4eVqfRojaoL8JHPhiKK8DI8CgRNH5F3DrV9im2/sQkKx+ZCmKfXFNdxALze7M4GT0yadXGqTTvRWUkZl+9KL9uhjjvDOeTHk5QtyyGOVwfflb7EyX7/aD71LX0RnTt5ojnSrJQuBTXaLZCqRUx5CG+U9eyFGBikk/iOZoj5zcJzmpzRjKPUIDK8f8AQJIrecRBO2GuP0zUO71EEM3EnviZa4vlge2PoDoup9R7BGkN4qUGXr9r48hQTMuiyj7eSFlcYCQIdie3go0LRMmJTRWGfV299CKkbUIOEouz2CGT4y/EqoiJ/jF4oiD3wTg7WJTjS2tQsRuLlq1r20SkTLUeIxhqohbh8DY2JseMNEUVBIGOcC8LB5uAVnRQ/0IMdSu+R4dPJEWTFr0CeLsKdKgVf0YXbI+ANJSb/rGsqQoSaQ0qNRcw2635yAA3OGgWGNAzVMBa3FP0K8dmiqJMXfdliKTXnBXApKJc2OB4pQv8mreJK8AkLdJlAySba2oixEc+qAUG7Uz1/mq1BltQk7qUFD0ASneUawxoUtICRrcKqIbbZpu4AGT9uR4ObwDTdKZ64iA+QcYg8BlZduDYrcEWiqIXawWTgtQQla4RXzu1VfxMeZxmgrd+yzWI9My+YGNRMLVUSmtlIdFf4EYLn3AB2W0TFwAVX0STXgBsB8UgghxD03w5IApPYvWe7RrExeKF7/sA5wb5rYI3YHTN4EsiBHPeeg2ibcfd6r4DxpIkDuCYZv41zOPfK7PdJlp4CIu2KmrByhZZnYoK8tPi16CT9J+1K61BwrcHnt07cdJzkFW8aFzYpIlGuGPude3mmKKogNitHwNECLqR4Wmfu4uo1Pdkl0fJtFAptfvpXsQB/Dk6RIm6w05vQ+38gzjHGjRI44gIBoqgshEZWvYLMvYfon4HqpmJpzs94EocaT+zfaGGUD/5oqBK8rEKr4B9AYF+Ft0A1kdtMv+UJAhfto3ytgPqTAbsycf2m8N8Ii4vIwkiNeXx1iuozeGucN/hnvKsCe21a/Rahrupa9RQBdQ2CB4DbwGcfNdQS7EqK4Jodnvt548SueD06CVzKZ/HhDRQgSaIFovntrjonRe/7EEKqRoJopdS3OQmBfLgupe71hnKElCAy/s1XqgSxkP4BbdWNBgMKBOiSFNJDdAr9GAvwcVtIHjwPokk4DZshZqP3iAOi2GK4gEv5V4UbGx5WAiPfdZAEJvrHs69KsA+ZcHeQ9fq+7HCsKqGqOKvmIuUAMrMe/ZwQVD2dg7234bCmRQ1zF4V/18N8FJc+Th/DhemFxXinMcS77fGRzs6EOgJPZzz6EHH6YHrQyugKCV1lrATisB3wuc6UbggwnnHRX3cRuC80FO5FKURdGlAmA8hdgd6UTfaf8NKZl3BbUzpF/rTiZ/bHFQY4mzpooEmO0hddPdlXYY+kMq+S9wnRMi12q6ZczTkxvWV3dQt/3UZdqLsdKzwvnX59OrePV4H+br2cmaKBvIojvzuGor6ogpH8AKZ4odPt8JCLh+qmKCyNYSP+3FuUNwdUZmSeUDhLHOsBsXoKUr8qr4+/oqFfM3RyYcgiiLUTxaC6q4CxR1UcvGNru15Begpwg/fxWy4VNE0ZFbZja4KqIJIRYJ6qtBi6cclGgeFSM7DGKtCUn4C2QWgvPXI7RiuuPmDYRuUEatqY5/zC9ZX3ae+qugwQSNSRnRn+bboRBkzfSnbR2ILhYL/Qdf+/cdd5S94S0QojoX6bnBLjjF2b92wLutg7QSVoXVBxzxXE/X4BVvOXVAF3UVr7xnlO4oynMp3hz8z3htSXceI/VJ3dN0tsVfrjhmbnUaCuC9vOsYjGY7lQ3ydB/CGVK0ybvieZoM4DaMwjQfZlOpZt63nAN7QN/Rpe16v1vKhC2BdAyuGRM4WShLqd3m0hJRIWjOi1hP0AfnuOEuMarXHk6AuAtbixOBsKoBdngafF7zXXcHISHK0pbOx7uqI2LIX7XlTi1OgE3pz82R9z+pmYufE8EhpndOxvPBqhYizrur8OOlmv3d2SojibCokVZyfpsdFBRH56hEn/XE/+Q+NXIMGDRo0aNCgQYMGDf5v8D+V7pCP8Xx+LgAAAABJRU5ErkJggg==;" parent="fJF8-RRNtBRzqFDMRA4T-34" vertex="1">
          <mxGeometry x="32" y="17" width="45" height="45" as="geometry" />
        </mxCell>
        <mxCell id="fpk_gtEA1vVm21kXCK9b-21" value="" style="rounded=1;whiteSpace=wrap;html=1;fillColor=#80808020;strokeColor=none;" parent="fJF8-RRNtBRzqFDMRA4T-34" vertex="1">
          <mxGeometry y="-1.5" width="110" height="101.5" as="geometry" />
        </mxCell>
        <mxCell id="RtOyRWhycByXUKqJibE9-10" value="" style="group" parent="x03pLvb_-MmkTBM4rhX1-9" vertex="1" connectable="0">
          <mxGeometry x="303" y="20" width="110" height="97" as="geometry" />
        </mxCell>
        <mxCell id="x03pLvb_-MmkTBM4rhX1-6" value="" style="group" vertex="1" connectable="0" parent="RtOyRWhycByXUKqJibE9-10">
          <mxGeometry width="110" height="97" as="geometry" />
        </mxCell>
        <mxCell id="x03pLvb_-MmkTBM4rhX1-10" value="" style="group" vertex="1" connectable="0" parent="x03pLvb_-MmkTBM4rhX1-6">
          <mxGeometry width="110" height="97" as="geometry" />
        </mxCell>
        <mxCell id="fpk_gtEA1vVm21kXCK9b-12" value="" style="rounded=1;whiteSpace=wrap;html=1;shadow=1;" parent="x03pLvb_-MmkTBM4rhX1-10" vertex="1">
          <mxGeometry width="110" height="97" as="geometry" />
        </mxCell>
        <mxCell id="RtOyRWhycByXUKqJibE9-1" value="html-File" style="shape=image;html=1;verticalAlign=top;verticalLabelPosition=bottom;labelBackgroundColor=#ffffff;imageAspect=0;aspect=fixed;image=https://cdn1.iconfinder.com/data/icons/bootstrap-vol-3/16/filetype-html-128.png" parent="x03pLvb_-MmkTBM4rhX1-10" vertex="1">
          <mxGeometry x="13" y="10" width="30" height="30" as="geometry" />
        </mxCell>
        <mxCell id="RtOyRWhycByXUKqJibE9-3" value="html-File" style="shape=image;html=1;verticalAlign=top;verticalLabelPosition=bottom;labelBackgroundColor=#ffffff;imageAspect=0;aspect=fixed;image=https://cdn1.iconfinder.com/data/icons/bootstrap-vol-3/16/filetype-html-128.png" parent="x03pLvb_-MmkTBM4rhX1-10" vertex="1">
          <mxGeometry x="63" y="40" width="30" height="30" as="geometry" />
        </mxCell>
        <mxCell id="fJF8-RRNtBRzqFDMRA4T-26" style="edgeStyle=orthogonalEdgeStyle;rounded=1;orthogonalLoop=1;jettySize=auto;html=1;exitX=1;exitY=0.75;exitDx=0;exitDy=0;strokeWidth=3;entryX=0;entryY=0.5;entryDx=0;entryDy=0;" parent="1" source="fJF8-RRNtBRzqFDMRA4T-13" target="fpk_gtEA1vVm21kXCK9b-21" edge="1">
          <mxGeometry relative="1" as="geometry" />
        </mxCell>
      </root>
    </mxGraphModel>
  </diagram>
</mxfile>
